<mxfile host="65bd71144e" scale="5" border="10">
    <diagram id="tVcZCLwnk6YYUcV4bede" name="ページ1">
        <mxGraphModel dx="1296" dy="925" grid="1" gridSize="10" guides="1" tooltips="1" connect="1" arrows="1" fold="1" page="1" pageScale="1" pageWidth="1169" pageHeight="827" background="#ffffff" math="0" shadow="0">
            <root>
                <mxCell id="0"/>
                <mxCell id="1" parent="0"/>
                <mxCell id="2" value="User" style="swimlane;fontStyle=1;align=center;verticalAlign=top;childLayout=stackLayout;horizontal=1;startSize=26;horizontalStack=0;resizeParent=1;resizeParentMax=0;resizeLast=0;collapsible=1;marginBottom=0;" parent="1" vertex="1">
                    <mxGeometry x="145" y="208" width="160" height="150" as="geometry"/>
                </mxCell>
                <mxCell id="3" value="- userId: int&#10;- userName: string&#10;- password: string" style="text;strokeColor=none;fillColor=none;align=left;verticalAlign=top;spacingLeft=4;spacingRight=4;overflow=hidden;rotatable=0;points=[[0,0.5],[1,0.5]];portConstraint=eastwest;" parent="2" vertex="1">
                    <mxGeometry y="26" width="160" height="64" as="geometry"/>
                </mxCell>
                <mxCell id="4" value="" style="line;strokeWidth=1;fillColor=none;align=left;verticalAlign=middle;spacingTop=-1;spacingLeft=3;spacingRight=3;rotatable=0;labelPosition=right;points=[];portConstraint=eastwest;strokeColor=inherit;" parent="2" vertex="1">
                    <mxGeometry y="90" width="160" height="8" as="geometry"/>
                </mxCell>
                <mxCell id="5" value="+ login()&#10;+ logout()" style="text;strokeColor=none;fillColor=none;align=left;verticalAlign=top;spacingLeft=4;spacingRight=4;overflow=hidden;rotatable=0;points=[[0,0.5],[1,0.5]];portConstraint=eastwest;" parent="2" vertex="1">
                    <mxGeometry y="98" width="160" height="52" as="geometry"/>
                </mxCell>
                <mxCell id="6" value="Diary" style="swimlane;fontStyle=1;align=center;verticalAlign=top;childLayout=stackLayout;horizontal=1;startSize=26;horizontalStack=0;resizeParent=1;resizeParentMax=0;resizeLast=0;collapsible=1;marginBottom=0;" parent="1" vertex="1">
                    <mxGeometry x="385" y="208" width="280" height="178" as="geometry"/>
                </mxCell>
                <mxCell id="7" value="- diaryId: int&#10;- date: date&#10;- content: string" style="text;strokeColor=none;fillColor=none;align=left;verticalAlign=top;spacingLeft=4;spacingRight=4;overflow=hidden;rotatable=0;points=[[0,0.5],[1,0.5]];portConstraint=eastwest;" parent="6" vertex="1">
                    <mxGeometry y="26" width="280" height="64" as="geometry"/>
                </mxCell>
                <mxCell id="8" value="" style="line;strokeWidth=1;fillColor=none;align=left;verticalAlign=middle;spacingTop=-1;spacingLeft=3;spacingRight=3;rotatable=0;labelPosition=right;points=[];portConstraint=eastwest;strokeColor=inherit;" parent="6" vertex="1">
                    <mxGeometry y="90" width="280" height="8" as="geometry"/>
                </mxCell>
                <mxCell id="9" value="+ createDiary(content: string)&#10;+ deleteDiary(diaryId: int)&#10;+ viewDiaries()&#10;+ editDiary(diaryId: int, newContent: string)" style="text;strokeColor=none;fillColor=none;align=left;verticalAlign=top;spacingLeft=4;spacingRight=4;overflow=hidden;rotatable=0;points=[[0,0.5],[1,0.5]];portConstraint=eastwest;labelBorderColor=none;labelBackgroundColor=none;fontColor=default;" parent="6" vertex="1">
                    <mxGeometry y="98" width="280" height="80" as="geometry"/>
                </mxCell>
                <mxCell id="10" value="EmotionAI" style="swimlane;fontStyle=1;align=center;verticalAlign=top;childLayout=stackLayout;horizontal=1;startSize=26;horizontalStack=0;resizeParent=1;resizeParentMax=0;resizeLast=0;collapsible=1;marginBottom=0;labelBackgroundColor=none;labelBorderColor=none;fontColor=default;html=0;" parent="1" vertex="1">
                    <mxGeometry x="745" y="208" width="280" height="140" as="geometry"/>
                </mxCell>
                <mxCell id="11" value="- botId: int&#10;- botName: string" style="text;strokeColor=none;fillColor=none;align=left;verticalAlign=top;spacingLeft=4;spacingRight=4;overflow=hidden;rotatable=0;points=[[0,0.5],[1,0.5]];portConstraint=eastwest;labelBackgroundColor=none;labelBorderColor=none;fontColor=default;html=0;" parent="10" vertex="1">
                    <mxGeometry y="26" width="280" height="54" as="geometry"/>
                </mxCell>
                <mxCell id="12" value="" style="line;strokeWidth=1;fillColor=none;align=left;verticalAlign=middle;spacingTop=-1;spacingLeft=3;spacingRight=3;rotatable=0;labelPosition=right;points=[];portConstraint=eastwest;strokeColor=inherit;labelBackgroundColor=none;labelBorderColor=none;fontColor=default;html=0;" parent="10" vertex="1">
                    <mxGeometry y="80" width="280" height="8" as="geometry"/>
                </mxCell>
                <mxCell id="13" value="+ analyzeContent(content: string): AnalysisResult&#10;+ generateResponse(query: string): string" style="text;strokeColor=none;fillColor=none;align=left;verticalAlign=top;spacingLeft=4;spacingRight=4;overflow=hidden;rotatable=0;points=[[0,0.5],[1,0.5]];portConstraint=eastwest;labelBackgroundColor=none;labelBorderColor=none;fontColor=default;html=0;" parent="10" vertex="1">
                    <mxGeometry y="88" width="280" height="52" as="geometry"/>
                </mxCell>
                <mxCell id="18" value="AnalysisResult" style="swimlane;fontStyle=1;align=center;verticalAlign=top;childLayout=stackLayout;horizontal=1;startSize=26;horizontalStack=0;resizeParent=1;resizeParentMax=0;resizeLast=0;collapsible=1;marginBottom=0;labelBackgroundColor=none;labelBorderColor=none;fontColor=default;html=0;" parent="1" vertex="1">
                    <mxGeometry x="145" y="448" width="160" height="144" as="geometry"/>
                </mxCell>
                <mxCell id="19" value="- analysisId: int&#10;- response: string&#10;- emotion: string&#10;- emotion_degree: float&#10;- date: date" style="text;strokeColor=none;fillColor=none;align=left;verticalAlign=top;spacingLeft=4;spacingRight=4;overflow=hidden;rotatable=0;points=[[0,0.5],[1,0.5]];portConstraint=eastwest;labelBackgroundColor=none;labelBorderColor=none;fontColor=default;html=0;" parent="18" vertex="1">
                    <mxGeometry y="26" width="160" height="84" as="geometry"/>
                </mxCell>
                <mxCell id="20" value="" style="line;strokeWidth=1;fillColor=none;align=left;verticalAlign=middle;spacingTop=-1;spacingLeft=3;spacingRight=3;rotatable=0;labelPosition=right;points=[];portConstraint=eastwest;strokeColor=inherit;labelBackgroundColor=none;labelBorderColor=none;fontColor=default;html=0;" parent="18" vertex="1">
                    <mxGeometry y="110" width="160" height="8" as="geometry"/>
                </mxCell>
                <mxCell id="21" value=" " style="text;strokeColor=none;fillColor=none;align=left;verticalAlign=top;spacingLeft=4;spacingRight=4;overflow=hidden;rotatable=0;points=[[0,0.5],[1,0.5]];portConstraint=eastwest;labelBackgroundColor=none;labelBorderColor=none;fontColor=default;html=0;" parent="18" vertex="1">
                    <mxGeometry y="118" width="160" height="26" as="geometry"/>
                </mxCell>
                <mxCell id="28" value="Conversation" style="swimlane;fontStyle=1;align=center;verticalAlign=top;childLayout=stackLayout;horizontal=1;startSize=26;horizontalStack=0;resizeParent=1;resizeParentMax=0;resizeLast=0;collapsible=1;marginBottom=0;labelBackgroundColor=none;labelBorderColor=none;fontColor=default;html=0;" parent="1" vertex="1">
                    <mxGeometry x="385" y="448" width="280" height="170" as="geometry"/>
                </mxCell>
                <mxCell id="29" value="- conversationId: int&#10;- startTime: datetime&#10;- endTime: datetime&#10;- messages: list[Message]" style="text;strokeColor=none;fillColor=none;align=left;verticalAlign=top;spacingLeft=4;spacingRight=4;overflow=hidden;rotatable=0;points=[[0,0.5],[1,0.5]];portConstraint=eastwest;labelBackgroundColor=none;labelBorderColor=none;fontColor=default;html=0;" parent="28" vertex="1">
                    <mxGeometry y="26" width="280" height="74" as="geometry"/>
                </mxCell>
                <mxCell id="30" value="" style="line;strokeWidth=1;fillColor=none;align=left;verticalAlign=middle;spacingTop=-1;spacingLeft=3;spacingRight=3;rotatable=0;labelPosition=right;points=[];portConstraint=eastwest;strokeColor=inherit;labelBackgroundColor=none;labelBorderColor=none;fontColor=default;html=0;" parent="28" vertex="1">
                    <mxGeometry y="100" width="280" height="8" as="geometry"/>
                </mxCell>
                <mxCell id="31" value="+ startConversation()&#10;+ endConversation()&#10;+ addMessage(message: Message)" style="text;strokeColor=none;fillColor=none;align=left;verticalAlign=top;spacingLeft=4;spacingRight=4;overflow=hidden;rotatable=0;points=[[0,0.5],[1,0.5]];portConstraint=eastwest;labelBackgroundColor=none;labelBorderColor=none;fontColor=default;html=0;" parent="28" vertex="1">
                    <mxGeometry y="108" width="280" height="62" as="geometry"/>
                </mxCell>
                <mxCell id="32" value="Message" style="swimlane;fontStyle=1;align=center;verticalAlign=top;childLayout=stackLayout;horizontal=1;startSize=26;horizontalStack=0;resizeParent=1;resizeParentMax=0;resizeLast=0;collapsible=1;marginBottom=0;labelBackgroundColor=none;labelBorderColor=none;fontColor=default;html=0;" parent="1" vertex="1">
                    <mxGeometry x="745" y="448" width="280" height="124" as="geometry"/>
                </mxCell>
                <mxCell id="33" value="- messageId: int&#10;- content: string&#10;- timestamp: datetime&#10;- sender: string // &quot;User&quot; or &quot;EmotionAI&quot;" style="text;strokeColor=none;fillColor=none;align=left;verticalAlign=top;spacingLeft=4;spacingRight=4;overflow=hidden;rotatable=0;points=[[0,0.5],[1,0.5]];portConstraint=eastwest;labelBackgroundColor=none;labelBorderColor=none;fontColor=default;html=0;" parent="32" vertex="1">
                    <mxGeometry y="26" width="280" height="64" as="geometry"/>
                </mxCell>
                <mxCell id="34" value="" style="line;strokeWidth=1;fillColor=none;align=left;verticalAlign=middle;spacingTop=-1;spacingLeft=3;spacingRight=3;rotatable=0;labelPosition=right;points=[];portConstraint=eastwest;strokeColor=inherit;labelBackgroundColor=none;labelBorderColor=none;fontColor=default;html=0;" parent="32" vertex="1">
                    <mxGeometry y="90" width="280" height="8" as="geometry"/>
                </mxCell>
                <mxCell id="35" value=" " style="text;strokeColor=none;fillColor=none;align=left;verticalAlign=top;spacingLeft=4;spacingRight=4;overflow=hidden;rotatable=0;points=[[0,0.5],[1,0.5]];portConstraint=eastwest;labelBackgroundColor=none;labelBorderColor=none;fontColor=default;html=0;" parent="32" vertex="1">
                    <mxGeometry y="98" width="280" height="26" as="geometry"/>
                </mxCell>
            </root>
        </mxGraphModel>
    </diagram>
</mxfile>